ffmpeg version N-87327-g18821e3 Copyright (c) 2000-2017 the FFmpeg developers
  built with gcc 7.2.0 (GCC)
  configuration: --enable-gpl --enable-version3 --enable-cuda --enable-cuvid --enable-d3d11va --enable-dxva2 --enable-libmfx --enable-nvenc --enable-avisynth --enable-bzlib --enable-fontconfig --enable-frei0r --enable-gnutls --enable-iconv --enable-libass --enable-libbluray --enable-libbs2b --enable-libcaca --enable-libfreetype --enable-libgme --enable-libgsm --enable-libilbc --enable-libmodplug --enable-libmp3lame --enable-libopencore-amrnb --enable-libopencore-amrwb --enable-libopenh264 --enable-libopenjpeg --enable-libopus --enable-librtmp --enable-libsnappy --enable-libsoxr --enable-libspeex --enable-libtheora --enable-libtwolame --enable-libvidstab --enable-libvo-amrwbenc --enable-libvorbis --enable-libvpx --enable-libwavpack --enable-libwebp --enable-libx264 --enable-libx265 --enable-libxavs --enable-libxvid --enable-libxml2 --enable-libzimg --enable-lzma --enable-zlib
  libavutil      55. 75.100 / 55. 75.100
  libavcodec     57.106.101 / 57.106.101
  libavformat    57. 82.100 / 57. 82.100
  libavdevice    57.  8.101 / 57.  8.101
  libavfilter     6.105.100 /  6.105.100
  libswscale      4.  7.103 /  4.  7.103
  libswresample   2.  8.100 /  2.  8.100
  libpostproc    54.  6.100 / 54.  6.100
Splitting the commandline.
Reading option '-v' ... matched as option 'v' (set logging level) with argument 'debug'.
Reading option '-nostdin' ... matched as option 'stdin' (enable or disable interaction on standard input) with argument 0.
Reading option '-progress' ... matched as option 'progress' (write program-readable progress information) with argument 'C:/Users/ydung/AppData/Local/Temp/KritaFFmpegProgress.ePEvBq'.
Reading option '-r' ... matched as option 'r' (set frame rate (Hz value, fraction or abbreviation)) with argument '3'.
Reading option '-start_number' ... matched as AVOption 'start_number' with argument '0'.
Reading option '-i' ... matched as input url with argument 'C:/Users/ydung/Desktop/data/grade9_science/biology/svgs/frame%04d.png'.
Reading option '-i' ... matched as input url with argument 'C:/Users/ydung/Desktop/data/grade9_science/biology/svgs/palette.png'.
Reading option '-lavfi' ... matched as option 'lavfi' (create a complex filtergraph) with argument 'scale=w=200:h=266[0:v];[0:v][1:v] paletteuse'.
Reading option '-y' ... matched as option 'y' (overwrite output files) with argument '1'.
Reading option 'C:/Users/ydung/Desktop/data/grade9_science/biology/svgs/cellsplit3.gif' ... matched as output url.
Finished splitting the commandline.
Parsing a group of options: global .
Applying option v (set logging level) with argument debug.
Applying option nostdin (enable or disable interaction on standard input) with argument 0.
Applying option progress (write program-readable progress information) with argument C:/Users/ydung/AppData/Local/Temp/KritaFFmpegProgress.ePEvBq.
[file @ 0000000002595d40] Setting default whitelist 'file,crypto'
Applying option lavfi (create a complex filtergraph) with argument scale=w=200:h=266[0:v];[0:v][1:v] paletteuse.
Applying option y (overwrite output files) with argument 1.
Successfully parsed a group of options.
Parsing a group of options: input url C:/Users/ydung/Desktop/data/grade9_science/biology/svgs/frame%04d.png.
Applying option r (set frame rate (Hz value, fraction or abbreviation)) with argument 3.
Successfully parsed a group of options.
Opening an input file: C:/Users/ydung/Desktop/data/grade9_science/biology/svgs/frame%04d.png.
[image2 @ 00000000025d6100] Opening 'C:/Users/ydung/Desktop/data/grade9_science/biology/svgs/frame0000.png' for reading
[file @ 000000000067a2c0] Setting default whitelist 'file,crypto'
[AVIOContext @ 00000000025defe0] Statistics: 92461 bytes read, 0 seeks
[image2 @ 00000000025d6100] Opening 'C:/Users/ydung/Desktop/data/grade9_science/biology/svgs/frame0001.png' for reading
[file @ 00000000025f5be0] Setting default whitelist 'file,crypto'
[AVIOContext @ 00000000025f5cc0] Statistics: 89381 bytes read, 0 seeks
[image2 @ 00000000025d6100] Opening 'C:/Users/ydung/Desktop/data/grade9_science/biology/svgs/frame0002.png' for reading
[file @ 00000000025f5c60] Setting default whitelist 'file,crypto'
[AVIOContext @ 000000000067e840] Statistics: 95872 bytes read, 0 seeks
[image2 @ 00000000025d6100] Opening 'C:/Users/ydung/Desktop/data/grade9_science/biology/svgs/frame0003.png' for reading
[file @ 000000000067e840] Setting default whitelist 'file,crypto'
[AVIOContext @ 000000000067e920] Statistics: 95221 bytes read, 0 seeks
[image2 @ 00000000025d6100] Opening 'C:/Users/ydung/Desktop/data/grade9_science/biology/svgs/frame0004.png' for reading
[file @ 000000000067e8e0] Setting default whitelist 'file,crypto'
[AVIOContext @ 000000000067eac0] Statistics: 97877 bytes read, 0 seeks
[image2 @ 00000000025d6100] Opening 'C:/Users/ydung/Desktop/data/grade9_science/biology/svgs/frame0005.png' for reading
[file @ 000000000067eac0] Setting default whitelist 'file,crypto'
[AVIOContext @ 000000000067eba0] Statistics: 98729 bytes read, 0 seeks
[image2 @ 00000000025d6100] Opening 'C:/Users/ydung/Desktop/data/grade9_science/biology/svgs/frame0006.png' for reading
[file @ 000000000067eb60] Setting default whitelist 'file,crypto'
[AVIOContext @ 000000000067ed40] Statistics: 102421 bytes read, 0 seeks
[image2 @ 00000000025d6100] Opening 'C:/Users/ydung/Desktop/data/grade9_science/biology/svgs/frame0007.png' for reading
[file @ 000000000067ed40] Setting default whitelist 'file,crypto'
[AVIOContext @ 000000000067ee20] Statistics: 118795 bytes read, 0 seeks
[image2 @ 00000000025d6100] Opening 'C:/Users/ydung/Desktop/data/grade9_science/biology/svgs/frame0008.png' for reading
[file @ 000000000067ede0] Setting default whitelist 'file,crypto'
[AVIOContext @ 000000000067aac0] Statistics: 124888 bytes read, 0 seeks
[image2 @ 00000000025d6100] Opening 'C:/Users/ydung/Desktop/data/grade9_science/biology/svgs/frame0009.png' for reading
[file @ 000000000067aac0] Setting default whitelist 'file,crypto'
[AVIOContext @ 000000000067aba0] Statistics: 125259 bytes read, 0 seeks
[image2 @ 00000000025d6100] Opening 'C:/Users/ydung/Desktop/data/grade9_science/biology/svgs/frame0010.png' for reading
[file @ 000000000067ab60] Setting default whitelist 'file,crypto'
[AVIOContext @ 000000000067ad40] Statistics: 136763 bytes read, 0 seeks
[image2 @ 00000000025d6100] Opening 'C:/Users/ydung/Desktop/data/grade9_science/biology/svgs/frame0011.png' for reading
[file @ 000000000067ad40] Setting default whitelist 'file,crypto'
[AVIOContext @ 000000000067ae20] Statistics: 136763 bytes read, 0 seeks
Input #0, image2, from 'C:/Users/ydung/Desktop/data/grade9_science/biology/svgs/frame%04d.png':
  Duration: 00:00:00.48, start: 0.000000, bitrate: N/A
    Stream #0:0, 12, 1/25: Video: png, 1 reference frame, rgba(pc), 1200x1600 [SAR 23622:23622 DAR 3:4], 0/1, 25 fps, 25 tbr, 25 tbn, 25 tbc
Successfully opened the file.
Parsing a group of options: input url C:/Users/ydung/Desktop/data/grade9_science/biology/svgs/palette.png.
Successfully parsed a group of options.
Opening an input file: C:/Users/ydung/Desktop/data/grade9_science/biology/svgs/palette.png.
[NULL @ 0000000000679920] Opening 'C:/Users/ydung/Desktop/data/grade9_science/biology/svgs/palette.png' for reading
[file @ 0000000000679f20] Setting default whitelist 'file,crypto'
[png_pipe @ 0000000000679920] Format png_pipe probed with size=2048 and score=99
[png_pipe @ 0000000000679920] Before avformat_find_stream_info() pos: 0 bytes read:980 seeks:0 nb_streams:1
[png_pipe @ 0000000000679920] After avformat_find_stream_info() pos: 980 bytes read:980 seeks:0 frames:1
Input #1, png_pipe, from 'C:/Users/ydung/Desktop/data/grade9_science/biology/svgs/palette.png':
  Duration: N/A, bitrate: N/A
    Stream #1:0, 1, 1/25: Video: png, 1 reference frame, rgba(pc), 16x16 [SAR 1:1 DAR 1:1], 0/1, 25 tbr, 25 tbn, 25 tbc
Successfully opened the file.
detected 8 logical cores
[Parsed_scale_0 @ 000000000265dae0] Setting 'w' to value '200'
[Parsed_scale_0 @ 000000000265dae0] Setting 'h' to value '266'
[Parsed_scale_0 @ 000000000265dae0] w:200 h:266 flags:'bilinear' interl:0
Parsing a group of options: output url C:/Users/ydung/Desktop/data/grade9_science/biology/svgs/cellsplit3.gif.
Successfully parsed a group of options.
Opening an output file: C:/Users/ydung/Desktop/data/grade9_science/biology/svgs/cellsplit3.gif.
[file @ 000000000067bdc0] Setting default whitelist 'file,crypto'
Successfully opened the file.
Stream mapping:
  Stream #0:0 (png) -> scale
  Stream #1:0 (png) -> paletteuse:palette
  paletteuse -> Stream #0:0 (gif)
cur_dts is invalid (this is harmless if it occurs once at the start per stream)
    Last message repeated 10 times
[Parsed_scale_0 @ 00000000025da1e0] Setting 'w' to value '200'
[Parsed_scale_0 @ 00000000025da1e0] Setting 'h' to value '266'
[Parsed_scale_0 @ 00000000025da1e0] w:200 h:266 flags:'bilinear' interl:0
[graph 0 input from stream 0:0 @ 0000000002f8ef40] Setting 'video_size' to value '1200x1600'
[graph 0 input from stream 0:0 @ 0000000002f8ef40] Setting 'pix_fmt' to value '28'
[graph 0 input from stream 0:0 @ 0000000002f8ef40] Setting 'time_base' to value '1/3'
[graph 0 input from stream 0:0 @ 0000000002f8ef40] Setting 'pixel_aspect' to value '23622/23622'
[graph 0 input from stream 0:0 @ 0000000002f8ef40] Setting 'sws_param' to value 'flags=2'
[graph 0 input from stream 0:0 @ 0000000002f8ef40] Setting 'frame_rate' to value '3/1'
[graph 0 input from stream 0:0 @ 0000000002f8ef40] w:1200 h:1600 pixfmt:rgba tb:1/3 fr:3/1 sar:23622/23622 sws_param:flags=2
[graph 0 input from stream 1:0 @ 0000000002f8f1a0] Setting 'video_size' to value '16x16'
[graph 0 input from stream 1:0 @ 0000000002f8f1a0] Setting 'pix_fmt' to value '28'
[graph 0 input from stream 1:0 @ 0000000002f8f1a0] Setting 'time_base' to value '1/25'
[graph 0 input from stream 1:0 @ 0000000002f8f1a0] Setting 'pixel_aspect' to value '1/1'
[graph 0 input from stream 1:0 @ 0000000002f8f1a0] Setting 'sws_param' to value 'flags=2'
[graph 0 input from stream 1:0 @ 0000000002f8f1a0] Setting 'frame_rate' to value '25/1'
[graph 0 input from stream 1:0 @ 0000000002f8f1a0] w:16 h:16 pixfmt:rgba tb:1/25 fr:25/1 sar:1/1 sws_param:flags=2
[format @ 0000000002f8f620] compat: called with args=[rgb8|bgr8|rgb4_byte|bgr4_byte|gray|pal8]
[format @ 0000000002f8f620] Setting 'pix_fmts' to value 'rgb8|bgr8|rgb4_byte|bgr4_byte|gray|pal8'
[auto_scaler_0 @ 000000000a142ea0] w:iw h:ih flags:'bilinear' interl:0
[Parsed_paletteuse_1 @ 00000000025f5be0] auto-inserting filter 'auto_scaler_0' between the filter 'graph 0 input from stream 1:0' and the filter 'Parsed_paletteuse_1'
[AVFilterGraph @ 000000000265ce20] query_formats: 6 queried, 4 merged, 1 already done, 0 delayed
[swscaler @ 0000000002ff0f20] Forcing full internal H chroma due to input having non subsampled chroma
[Parsed_scale_0 @ 00000000025da1e0] w:1200 h:1600 fmt:rgba sar:23622/23622 -> w:200 h:266 fmt:bgra sar:399/400 flags:0x2
[swscaler @ 00000000030307c0] Forcing full internal H chroma due to input having non subsampled chroma
[auto_scaler_0 @ 000000000a142ea0] w:16 h:16 fmt:rgba sar:1/1 -> w:16 h:16 fmt:bgra sar:1/1 flags:0x2
[Parsed_paletteuse_1 @ 00000000025f5be0] [framesync @ 000000000a0c00a8] Selected 1/75 time base
[Parsed_paletteuse_1 @ 00000000025f5be0] [framesync @ 000000000a0c00a8] Sync level 2
Output #0, gif, to 'C:/Users/ydung/Desktop/data/grade9_science/biology/svgs/cellsplit3.gif':
  Metadata:
    encoder         : Lavf57.82.100
    Stream #0:0, 0, 1/100: Video: gif, 1 reference frame, pal8, 200x266 [SAR 399:400 DAR 3:4], 0/1, q=2-31, 200 kb/s, 3 fps, 100 tbn, 3 tbc (default)
    Metadata:
      encoder         : Lavc57.106.101 gif
Clipping frame in rate conversion by 0.000008
[gif @ 000000000067b480] 119x98 image at pos (35;58) [area:200x266]
[gif @ 000000000067b480] 122x100 image at pos (35;56) [area:200x266]
[gif @ 000000000067b480] 76x88 image at pos (81;61) [area:200x266]
[gif @ 000000000067b480] 79x90 image at pos (78;61) [area:200x266]
[gif @ 000000000067b480] 91x92 image at pos (66;59) [area:200x266]
[gif @ 000000000067b480] 140x107 image at pos (30;48) [area:200x266]
[gif @ 000000000067b480] 146x105 image at pos (30;47) [area:200x266]
[gif @ 000000000067b480] 153x97 image at pos (31;46) [area:200x266]
[gif @ 000000000067b480] 163x103 image at pos (25;46) [area:200x266]
[gif @ 000000000067b480] 165x111 image at pos (25;40) [area:200x266]
[gif @ 000000000067b480] 1x1 image at pos (199;265) [area:200x266]
[Parsed_paletteuse_1 @ 00000000025f5be0] [framesync @ 000000000a0c00a8] Sync level 0
[out_0_0 @ 0000000002f8f4c0] EOF on sink link out_0_0:default.
No more output streams to write to, finishing.
frame=   12 fps=0.0 q=-0.0 Lsize=      26kB time=00:00:03.68 bitrate=  57.2kbits/s speed=25.2x    
[AVIOContext @ 00000000025d5fc0] Statistics: 0 seeks, 1 writeouts
video:25kB audio:0kB subtitle:0kB other streams:0kB global headers:0kB muxing overhead: 3.528579%
Input file #0 (C:/Users/ydung/Desktop/data/grade9_science/biology/svgs/frame%04d.png):
  Input stream #0:0 (video): 12 packets read (1314430 bytes); 12 frames decoded; 
  Total: 12 packets (1314430 bytes) demuxed
Input file #1 (C:/Users/ydung/Desktop/data/grade9_science/biology/svgs/palette.png):
  Input stream #1:0 (video): 1 packets read (980 bytes); 1 frames decoded; 
  Total: 1 packets (980 bytes) demuxed
Output file #0 (C:/Users/ydung/Desktop/data/grade9_science/biology/svgs/cellsplit3.gif):
  Output stream #0:0 (video): 12 frames encoded; 12 packets muxed (25421 bytes); 
  Total: 12 packets (25421 bytes) muxed
13 frames successfully decoded, 0 decoding errors
[AVIOContext @ 000000000067bea0] Statistics: 0 seeks, 2 writeouts
[AVIOContext @ 00000000025defe0] Statistics: 980 bytes read, 0 seeks
